<svg xmlns="http://www.w3.org/2000/svg" width="44" height="44" viewBox="0 0 44 44">
  <g id="Group_72" data-name="Group 72" transform="translate(-710 -29)">
    <g id="shuffle-line" transform="translate(710 29)">
      <path id="Path_83" data-name="Path 83" d="M0,0H44V44H0Z" fill="none"/>
      <path id="Path_84" data-name="Path 84" d="M33.238,33.766V30L43,36l-9.762,6V37.82A17.639,17.639,0,0,1,19.577,27.09l-.006-.01-.006.012A17.566,17.566,0,0,1,3.415,38H2V34H3.415a13.662,13.662,0,0,0,12.561-8.486L17.447,22l-1.47-3.514A13.662,13.662,0,0,0,3.415,10H2V6H3.415a17.566,17.566,0,0,1,16.15,10.909l.006.011.006-.012A17.639,17.639,0,0,1,33.238,6.18V2L43,8l-9.762,6V10.234a13.736,13.736,0,0,0-10.072,8.252L21.7,22l1.47,3.514a13.736,13.736,0,0,0,10.072,8.252Z" transform="translate(0)" fill="#09a97d"/>
    </g>
    <circle id="Ellipse_8" data-name="Ellipse 8" cx="2.5" cy="2.5" r="2.5" transform="translate(726 65)" fill="#09a97d"/>
  </g>
</svg>
